<?xml version="1.0" standalone="no"?>
<!DOCTYPE svg PUBLIC "-//W3C//DTD SVG 20010904//EN"
 "http://www.w3.org/TR/2001/REC-SVG-20010904/DTD/svg10.dtd">
<svg version="1.0" xmlns="http://www.w3.org/2000/svg"
 width="1917.000000pt" height="742.000000pt" viewBox="0 0 1917.000000 742.000000"
 preserveAspectRatio="xMidYMid meet">

<g transform="translate(0.000000,742.000000) scale(0.100000,-0.100000)"
fill="#000000" stroke="none">
<path d="M4511 6375 c-51 -13 -98 -28 -105 -33 -6 -5 -31 -17 -56 -26 -25 -10
-76 -39 -115 -65 -38 -25 -81 -52 -95 -59 -29 -15 -137 -93 -161 -116 -9 -9
-20 -16 -26 -16 -5 0 -18 -9 -28 -20 -10 -11 -24 -20 -31 -20 -7 0 -14 -3 -16
-7 -1 -5 -25 -25 -53 -46 -163 -125 -334 -336 -513 -635 -74 -124 -154 -315
-168 -402 -3 -19 -10 -42 -14 -50 -12 -22 -20 -118 -25 -280 -6 -234 -24 -391
-56 -495 -20 -68 -158 -482 -167 -505 -6 -14 -23 -65 -37 -115 -31 -103 -91
-291 -111 -350 -7 -22 -22 -71 -33 -110 -11 -38 -24 -83 -30 -100 -6 -16 -27
-84 -47 -150 -33 -109 -50 -169 -84 -305 -7 -25 -15 -54 -20 -65 -5 -11 -11
-31 -13 -45 -3 -14 -14 -68 -25 -121 -12 -53 -23 -129 -27 -170 -3 -41 -7 -99
-10 -129 -5 -67 18 -184 52 -264 112 -267 385 -385 691 -299 48 14 92 28 97
32 6 4 35 18 65 31 70 29 323 173 371 211 20 16 40 29 44 29 17 0 141 108 221
193 99 105 175 213 242 347 32 63 61 114 146 255 92 154 245 293 419 381 188
96 237 108 363 92 38 -5 85 -11 104 -13 19 -3 62 -7 95 -10 128 -10 136 -18
159 -154 47 -278 53 -301 100 -404 36 -77 102 -170 163 -228 87 -83 213 -161
278 -172 17 -3 52 -12 80 -21 86 -27 240 -39 406 -33 86 4 168 11 183 17 15 5
42 10 59 10 18 0 77 12 132 26 55 14 120 30 145 35 25 6 54 14 65 19 11 5 61
26 110 46 50 20 167 69 260 109 343 146 420 155 748 86 82 -17 152 -33 156
-35 4 -3 45 -6 92 -7 48 -1 126 -12 184 -26 75 -19 129 -25 215 -26 105 0 130
3 280 43 l165 43 210 -9 c430 -18 440 -16 750 83 173 55 251 70 390 72 60 0
127 3 149 6 159 17 232 16 315 -5 153 -40 237 -49 401 -44 229 6 423 33 735
103 321 72 457 84 577 52 59 -16 117 -47 118 -62 0 -3 12 -23 26 -44 14 -21
23 -44 20 -51 -3 -7 -1 -16 3 -18 8 -5 25 -118 36 -236 14 -156 75 -271 177
-336 21 -13 42 -24 48 -24 13 0 23 -8 109 -87 37 -34 80 -72 96 -85 38 -30
127 -47 185 -36 146 29 288 72 388 119 35 16 67 29 72 29 11 0 136 62 240 119
41 22 82 44 90 48 48 22 311 203 360 246 8 8 31 25 50 38 19 13 37 27 40 30 3
3 48 43 100 88 169 147 441 428 538 556 12 17 47 62 77 102 30 39 55 75 55 81
0 5 9 17 20 27 11 10 20 22 20 28 0 5 15 30 33 56 42 61 55 81 67 109 6 13 23
42 38 65 29 44 122 230 122 245 0 5 8 20 19 33 10 13 22 35 26 49 4 14 18 48
30 75 12 28 41 97 65 155 23 58 48 119 56 135 7 17 25 62 40 100 14 39 32 84
40 102 8 17 14 37 14 45 0 8 7 23 15 34 8 10 15 25 15 33 0 8 9 33 19 55 11
23 36 93 56 156 21 63 43 129 50 145 53 129 140 463 156 595 18 148 -12 337
-74 470 -57 121 -204 262 -326 310 -31 12 -65 26 -76 30 -97 41 -321 38 -470
-6 -164 -48 -309 -86 -368 -97 -57 -11 -69 -10 -367 24 -41 5 -143 12 -225 15
-122 5 -166 3 -230 -11 -96 -21 -206 -54 -219 -66 -6 -5 -17 -9 -26 -9 -25 0
-100 -79 -100 -106 0 -28 -2 -28 41 -10 19 8 84 17 144 21 89 6 123 13 176 36
60 26 169 59 292 88 26 6 88 11 138 11 87 0 93 -1 144 -35 117 -78 162 -209
131 -381 -8 -49 -23 -132 -32 -184 -18 -109 -38 -164 -56 -158 -10 4 -13 46
-15 164 -1 87 -6 171 -12 185 -22 58 -85 35 -101 -36 -9 -37 -6 -124 6 -170 4
-16 3 -17 -5 -5 -6 8 -11 24 -11 35 -1 15 -5 11 -15 -12 -16 -37 -39 -43 -54
-14 -6 10 -13 61 -16 112 -7 105 -22 139 -61 139 -30 0 -64 -34 -89 -90 l-18
-40 26 -28 c55 -59 55 -149 -2 -280 -56 -129 -138 -406 -202 -682 -46 -199
-35 -325 35 -406 33 -38 35 -39 102 -39 87 0 142 25 285 132 115 86 324 288
386 373 169 235 287 473 373 755 66 215 107 265 219 265 88 0 140 -70 127
-170 -18 -132 -121 -440 -296 -880 -34 -85 -74 -191 -90 -235 -124 -352 -261
-642 -393 -834 -264 -385 -895 -880 -1245 -977 -51 -14 -69 -15 -101 -5 -53
15 -86 66 -78 121 10 74 57 114 199 167 136 51 286 124 386 189 160 104 379
308 520 483 98 122 240 336 230 347 -3 2 -29 -34 -59 -81 -125 -198 -256 -354
-438 -520 -72 -66 -168 -145 -212 -177 -81 -58 -241 -144 -334 -179 -88 -33
-73 -20 28 26 191 87 312 168 491 330 188 170 315 320 439 521 68 109 129 221
162 299 39 90 47 111 66 168 25 71 32 137 15 137 -6 0 -85 -75 -176 -166 -143
-143 -304 -282 -390 -335 -102 -63 -245 -77 -340 -33 -30 14 -69 36 -86 49
-41 32 -97 117 -118 182 -42 128 -5 445 97 823 19 69 46 168 60 220 14 52 33
138 42 190 9 52 26 114 37 138 11 24 17 50 13 60 -13 34 -52 -54 -65 -147 -15
-108 -24 -148 -49 -236 -12 -38 -26 -90 -32 -115 -6 -25 -19 -72 -29 -105 -10
-33 -26 -96 -35 -140 -9 -44 -25 -118 -36 -165 -50 -229 -61 -454 -27 -551 18
-52 87 -146 143 -196 40 -36 44 -42 19 -29 -41 20 -122 110 -156 172 -87 161
-45 505 144 1164 16 58 33 141 38 185 9 90 14 104 47 157 l23 37 -22 57 c-12
31 -28 58 -35 61 -8 3 -29 -7 -46 -23 l-32 -29 33 36 c18 19 29 38 26 42 -14
14 -53 7 -63 -11 -5 -10 -10 -82 -10 -160 -2 -178 -13 -212 -61 -182 -12 7
-16 43 -18 189 -4 187 -9 209 -47 195 -10 -4 -30 -35 -46 -70 -16 -34 -33 -66
-39 -69 -13 -8 -50 22 -50 40 0 25 -25 36 -46 20 -10 -8 -38 -15 -61 -15 -23
0 -43 -5 -45 -12 -2 -6 -30 9 -65 36 -46 36 -84 55 -154 77 -88 27 -196 39
-212 22 -4 -3 23 -23 60 -43 75 -40 108 -82 97 -124 -9 -36 -43 -44 -254 -55
-102 -6 -199 -14 -215 -19 -27 -9 -98 -26 -275 -66 -36 -8 -103 -24 -150 -35
-47 -11 -115 -25 -152 -31 -64 -11 -68 -14 -78 -46 -22 -64 -117 -116 -174
-94 -23 8 -26 15 -26 60 l0 50 -47 2 c-48 1 -48 1 -8 5 50 5 64 18 36 33 -25
13 -81 -1 -101 -26 -10 -11 -9 -14 6 -14 16 0 15 -2 -5 -13 -26 -13 -32 -27
-50 -118 -7 -34 -23 -69 -41 -91 -52 -63 -148 -68 -179 -9 -6 10 -12 86 -15
169 -3 84 -10 161 -16 171 -34 64 19 127 173 206 l97 49 -25 26 c-28 29 -108
53 -240 70 -44 6 -102 14 -130 18 -99 14 -306 7 -380 -12 -83 -22 -224 -79
-275 -111 -20 -13 -108 -58 -195 -100 -152 -75 -161 -78 -239 -81 -110 -5
-137 -10 -190 -40 -25 -14 -58 -27 -73 -30 -15 -2 -39 -7 -53 -11 -14 -3 -29
-7 -35 -8 -5 0 -30 -4 -55 -8 -25 -4 -72 -9 -105 -12 -33 -3 -92 -10 -131 -16
-39 -5 -122 -11 -185 -12 -94 -1 -127 3 -189 22 -41 12 -83 25 -93 28 -18 6
-18 5 -1 -28 33 -62 26 -172 -23 -332 -41 -134 -55 -167 -74 -167 -12 0 -11
91 2 168 18 104 -15 178 -60 133 -25 -25 -48 -146 -31 -166 7 -9 10 -18 7 -22
-4 -3 -9 1 -13 10 -5 13 -9 14 -25 4 -25 -15 -39 3 -39 50 0 23 -8 39 -32 59
-27 21 -28 24 -6 10 15 -9 30 -16 33 -16 3 0 5 24 3 53 -3 49 -5 52 -32 55
-19 2 -36 -4 -52 -19 -30 -28 -30 -37 -1 -49 19 -9 18 -10 -8 -5 -25 4 -33 0
-50 -27 -49 -79 -132 -86 -170 -15 -12 22 -28 37 -40 38 -18 1 -18 2 -2 6 15
4 17 11 12 31 -15 62 -57 91 -83 59 -13 -15 -28 -127 -18 -127 4 0 20 7 36 15
41 21 38 12 -3 -13 -29 -16 -35 -27 -40 -66 -4 -26 -11 -56 -17 -66 -14 -26
-40 -26 -47 0 -3 11 -9 20 -15 20 -5 0 -5 7 0 18 5 9 12 55 16 102 4 47 9 94
12 105 6 26 -17 58 -36 50 -9 -3 -28 -26 -42 -50 -42 -69 -76 -54 -79 37 -2
54 7 84 39 127 l25 33 -24 -7 c-13 -4 -62 -28 -108 -54 -103 -57 -124 -86
-158 -217 -23 -91 -44 -136 -83 -174 -18 -17 -37 -22 -102 -23 -40 -1 -45 -3
-35 -16 14 -17 10 -15 -63 34 l-53 35 -31 -21 c-29 -19 -116 -62 -176 -86 -24
-10 -24 -11 19 -23 130 -35 226 -107 287 -215 19 -34 34 -68 34 -76 0 -7 -14
16 -32 51 -60 121 -174 205 -314 235 -54 11 -76 10 -166 -5 -56 -10 -146 -21
-198 -24 -52 -3 -113 -11 -135 -17 -47 -13 -183 -79 -227 -110 -28 -21 -30
-25 -24 -70 8 -59 -7 -93 -49 -114 -49 -23 -82 -19 -111 12 l-26 28 -59 -62
c-45 -46 -59 -68 -59 -90 0 -35 -21 -56 -71 -72 -51 -17 -171 -151 -274 -308
-15 -24 -30 -43 -32 -43 -11 0 79 129 171 244 57 70 76 101 65 104 -38 12
-110 106 -157 205 -27 57 -54 107 -59 110 -5 3 -32 -24 -59 -61 -131 -181
-431 -425 -704 -574 -36 -20 -87 -48 -113 -62 -164 -90 -479 -217 -752 -304
-252 -80 -466 -146 -578 -178 -51 -14 -61 -21 -73 -49 -12 -29 -55 -186 -125
-454 -10 -41 -21 -77 -24 -79 -10 -11 -4 26 21 118 14 52 34 131 45 175 11 44
28 109 39 145 11 36 23 79 26 95 9 42 21 54 63 61 20 3 70 16 111 29 41 12
102 30 135 40 328 96 656 207 815 277 266 117 440 211 628 338 124 84 149 104
276 216 108 96 246 261 246 295 0 6 -9 22 -20 36 -11 14 -20 34 -20 44 0 23
64 96 91 104 21 7 43 71 54 158 5 42 11 54 21 50 9 -3 14 1 14 12 0 9 -4 14
-9 11 -5 -4 -12 0 -15 6 -3 9 -13 3 -28 -16 -62 -79 -65 -82 -87 -69 -19 12
-21 10 -27 -25 -18 -106 -68 -239 -118 -312 -44 -66 -231 -249 -333 -327 -15
-12 -37 -30 -48 -40 -11 -10 -33 -25 -50 -33 -16 -8 -50 -29 -75 -46 -25 -17
-76 -48 -115 -69 -38 -21 -77 -43 -85 -49 -20 -16 -72 -38 -77 -33 -2 3 27 22
64 42 381 210 692 484 763 673 63 164 92 366 66 443 -9 24 -16 50 -16 57 0 7
-12 39 -27 70 -35 72 -135 178 -218 232 -36 23 -65 44 -65 46 0 16 141 -77
191 -127 28 -27 96 -122 115 -159 24 -47 43 -142 44 -214 l0 -59 23 29 c19 25
22 40 22 124 0 74 4 100 18 120 9 13 17 30 17 36 0 23 -99 161 -156 217 -96
93 -243 187 -294 187 -11 0 -42 -22 -70 -49 -27 -27 -62 -52 -76 -55 -34 -9
-30 -12 61 -52 174 -75 289 -174 353 -303 35 -71 37 -81 40 -187 6 -177 -44
-345 -138 -470 -114 -151 -364 -353 -595 -481 -178 -98 -221 -121 -305 -158
-47 -20 -98 -43 -115 -51 -157 -69 -495 -182 -965 -320 -151 -45 -186 -67
-225 -144 -24 -47 -68 -196 -130 -435 -116 -449 -149 -539 -242 -653 -96 -117
-198 -124 -234 -15 -15 46 -2 92 71 262 62 144 98 257 270 851 48 164 137 441
176 545 15 39 71 185 124 325 154 401 231 623 229 659 -1 19 -47 -77 -48 -99
-1 -16 -83 -252 -107 -307 -8 -17 -14 -35 -14 -40 -1 -4 -9 -26 -20 -48 -11
-22 -19 -46 -20 -53 0 -7 -4 -20 -10 -30 -5 -9 -16 -35 -24 -57 -18 -50 -93
-243 -105 -270 -9 -19 -42 -111 -96 -265 -15 -41 -33 -97 -40 -125 -30 -112
-44 -157 -54 -168 -5 -7 -13 -37 -17 -67 -4 -30 -10 -59 -14 -65 -4 -5 -11
-26 -15 -45 -3 -19 -15 -62 -26 -95 -10 -33 -35 -114 -55 -180 -19 -66 -39
-129 -44 -140 -5 -11 -12 -39 -15 -62 -4 -24 -11 -45 -16 -49 -5 -3 -9 -12 -9
-20 0 -24 -46 -139 -101 -250 -27 -55 -51 -114 -55 -131 -9 -43 13 -136 41
-177 29 -43 25 -46 -9 -10 -33 36 -50 102 -43 172 3 41 20 89 60 172 52 110
102 248 147 410 12 41 28 93 35 115 8 22 18 58 24 80 5 22 23 87 40 145 17 58
36 123 42 145 6 22 17 58 24 80 7 22 23 74 35 115 35 117 156 465 191 545 18
42 87 221 94 245 4 14 16 43 26 65 26 58 133 357 159 447 l22 76 -21 31 c-12
16 -37 35 -56 41 -19 6 -46 25 -60 41 -21 25 -25 41 -25 90 0 125 61 201 209
265 47 20 100 49 116 65 17 16 51 68 75 116 54 103 113 169 163 178 66 13 110
-17 176 -119 23 -35 50 -68 59 -72 9 -4 134 -9 277 -10 283 -2 440 -14 579
-44 113 -25 119 -25 111 -1 -4 12 0 23 9 28 22 12 47 66 36 77 -5 5 -23 2 -45
-8 -45 -22 -54 -14 -31 25 22 38 15 47 -47 55 -46 7 -48 6 -101 -44 -59 -56
-104 -73 -162 -63 -65 12 -101 41 -146 118 -11 18 -31 36 -46 40 -14 3 -93 2
-175 -3 -99 -6 -154 -6 -163 1 -7 6 -25 34 -41 64 -26 50 -73 101 -93 101 -5
0 -10 -21 -12 -47 -2 -36 -7 -49 -20 -51 -16 -3 -18 5 -18 67 0 48 -4 71 -12
71 -6 0 -4 6 6 13 16 11 17 17 7 36 -18 33 -43 22 -68 -31 -22 -46 -55 -78
-81 -78 -18 0 -76 61 -80 85 -5 25 -31 55 -48 55 -19 0 -34 -33 -34 -75 0 -31
3 -36 17 -31 9 4 -5 -13 -32 -38 -48 -43 -75 -55 -42 -18 13 15 15 28 7 81
-10 73 -26 91 -52 60 -14 -17 -18 -40 -18 -111 0 -65 -3 -89 -12 -86 -15 5
-22 34 -38 156 -15 118 -4 175 46 226 34 35 37 36 108 36 78 0 185 -27 243
-60 18 -10 60 -21 93 -24 121 -12 171 -68 140 -160 -15 -47 -33 -45 -53 5 -20
52 -41 47 -45 -11 -3 -38 1 -46 35 -80 21 -20 54 -60 72 -88 l33 -52 174 0
174 0 0 29 c0 63 63 148 123 167 12 3 27 11 34 16 40 32 200 15 298 -32 105
-49 277 -66 430 -42 34 6 65 6 71 1 6 -5 14 -6 17 -2 7 6 -75 50 -168 89 -121
52 -359 114 -575 149 -95 16 -283 60 -550 129 -142 37 -144 37 -290 42 -120 4
-145 2 -229 -21z m54 -345 c-3 -5 -11 -10 -16 -10 -6 0 -7 5 -4 10 3 6 11 10
16 10 6 0 7 -4 4 -10z m11470 -60 c50 -28 167 -56 185 -45 18 11 79 -15 100
-42 12 -16 20 -41 20 -65 0 -30 8 -50 33 -81 26 -34 33 -53 39 -112 4 -38 10
-91 14 -117 6 -45 4 -49 -33 -88 -22 -22 -47 -40 -56 -40 -20 0 -21 4 -6 32
16 30 2 35 -25 9 -36 -34 -52 -18 -26 25 11 20 20 50 20 67 0 18 7 43 16 55
15 22 14 27 -5 72 -12 27 -21 65 -21 85 0 29 -5 37 -25 45 -19 7 -25 17 -25
40 0 42 -22 47 -63 16 -19 -14 -38 -26 -44 -26 -5 0 -24 -11 -43 -25 -23 -17
-37 -22 -44 -15 -7 7 -4 14 9 23 23 18 12 37 -18 29 -20 -5 -21 -4 -8 11 11
14 11 20 1 32 -17 20 -24 19 -57 -8 -38 -32 -71 -39 -103 -22 -62 32 -79 108
-34 150 44 41 119 39 199 -5z m-11221 -96 c35 -36 68 -96 80 -147 11 -45 -7
-24 -29 34 -11 28 -40 74 -63 100 -50 56 -40 67 12 13z m-212 -5 c-44 -32
-102 -107 -102 -131 0 -7 -6 -22 -14 -33 -7 -11 -17 -34 -20 -51 -10 -47 -64
-102 -106 -109 l-35 -6 31 15 c27 12 84 72 84 89 0 3 15 39 34 80 38 82 75
131 121 158 48 30 53 22 7 -12z m11253 -149 c-16 -4 -39 -8 -50 -8 -16 0 -15
2 5 8 14 4 36 8 50 8 22 0 22 -1 -5 -8z m138 3 c-7 -2 -19 -2 -25 0 -7 3 -2 5
12 5 14 0 19 -2 13 -5z m44 -9 c-3 -3 -12 -4 -19 -1 -8 3 -5 6 6 6 11 1 17 -2
13 -5z m-11737 -24 c-8 -5 -45 -19 -81 -30 -75 -24 -138 -61 -188 -111 -24
-24 -31 -27 -22 -11 18 33 97 88 171 118 36 14 79 32 95 39 32 14 49 10 25 -5z
m11475 10 c-3 -5 -11 -10 -16 -10 -5 0 -27 -11 -49 -25 -22 -14 -40 -23 -40
-20 0 7 91 65 103 65 4 0 5 -4 2 -10z m339 -21 c44 -30 114 -114 103 -126 -3
-3 -13 9 -21 26 -20 38 -48 65 -105 102 -25 16 -40 29 -35 29 6 0 32 -14 58
-31z m-52 -136 c51 -55 60 -155 24 -273 -9 -30 -18 -62 -19 -70 -4 -25 -99
-314 -107 -325 -4 -5 -11 -26 -15 -45 -4 -19 -14 -44 -21 -55 -13 -18 -14 -18
-14 -1 0 10 6 32 14 49 16 37 73 207 106 317 12 41 29 95 37 120 20 60 27 138
19 194 -5 34 -17 56 -42 81 -19 19 -29 35 -21 35 7 0 25 -12 39 -27z m-257 -2
c-44 -27 -62 -51 -75 -101 -6 -25 -15 -56 -20 -70 -4 -14 -15 -50 -24 -80 -9
-30 -21 -64 -25 -75 -5 -11 -21 -54 -35 -95 -36 -100 -42 -115 -116 -265 -36
-71 -79 -151 -97 -177 -18 -26 -33 -50 -33 -53 0 -10 -78 -117 -130 -177 -165
-192 -446 -419 -517 -418 -10 0 5 13 32 28 127 70 324 236 447 376 156 179
298 424 387 671 18 50 41 110 50 135 24 59 51 145 51 158 0 6 9 36 20 66 21
54 64 95 100 96 8 0 2 -8 -15 -19z m422 -23 c-3 -8 -6 -5 -6 6 -1 11 2 17 5
13 3 -3 4 -12 1 -19z m-12038 -41 c-76 -57 -102 -110 -124 -246 -7 -44 11
-110 38 -139 17 -18 18 -22 4 -17 -58 23 -76 162 -36 270 23 62 67 118 114
147 48 29 50 21 4 -15z m10573 1 c34 -28 68 -128 68 -200 0 -18 -9 -48 -20
-66 -11 -18 -18 -37 -15 -42 3 -5 -5 -26 -18 -47 -25 -40 -124 -343 -142 -433
-4 -19 -11 -39 -15 -45 -4 -5 -10 -31 -14 -56 -4 -26 -16 -71 -26 -100 -11
-30 -20 -67 -20 -84 0 -17 -5 -46 -10 -65 -10 -34 -13 -126 -7 -181 3 -22 18
-52 60 -117 7 -11 5 -12 -11 -3 -30 16 -62 91 -69 163 -5 59 7 173 27 243 5
17 18 62 29 100 11 39 27 102 37 140 9 39 24 95 34 125 10 30 25 82 35 115 9
33 31 94 47 135 63 156 78 202 78 243 0 53 -26 124 -59 160 -25 27 -18 38 11
15z m1475 -10 c-3 -8 -6 -5 -6 6 -1 11 2 17 5 13 3 -3 4 -12 1 -19z m10 -100
c-2 -13 -4 -5 -4 17 -1 22 1 32 4 23 2 -10 2 -28 0 -40z m-2483 -31 c27 -37
45 -72 22 -42 -9 11 -38 42 -64 69 -38 40 -41 45 -14 27 17 -12 43 -37 56 -54z
m-2247 27 c-3 -3 -12 -4 -19 -1 -8 3 -5 6 6 6 11 1 17 -2 13 -5z m66 -1 c-7
-2 -19 -2 -25 0 -7 3 -2 5 12 5 14 0 19 -2 13 -5z m-134 -17 c-40 -14 -171
-109 -210 -152 -15 -16 -43 -51 -63 -77 -20 -27 -36 -45 -36 -41 0 11 49 73
105 133 57 62 187 151 219 151 14 -1 10 -5 -15 -14z m198 8 c-3 -3 -12 -4 -19
-1 -8 3 -5 6 6 6 11 1 17 -2 13 -5z m96 -45 c20 -17 42 -40 48 -52 8 -16 3
-13 -17 9 -16 16 -42 40 -58 52 -16 12 -25 22 -20 22 5 0 26 -14 47 -31z
m4472 -85 c-38 -139 -144 -458 -199 -599 -26 -66 -52 -133 -58 -148 -6 -15
-13 -26 -15 -23 -5 4 26 96 47 141 54 118 190 529 232 705 6 25 13 40 15 33 2
-7 -8 -56 -22 -109z m-2570 39 c33 -35 65 -99 65 -130 0 -46 -84 -183 -112
-183 -61 0 -917 -840 -1445 -1417 -43 -46 -79 -91 -81 -99 -5 -18 39 -34 94
-34 25 0 98 13 162 29 64 16 212 51 327 76 312 69 361 82 460 120 190 73 342
127 388 138 60 14 94 -1 120 -55 15 -31 16 -43 7 -78 -15 -55 -85 -126 -137
-138 -54 -12 -201 -50 -318 -82 -516 -140 -744 -200 -825 -218 -240 -53 -326
-66 -445 -67 -143 0 -195 16 -249 76 -30 33 -36 46 -36 84 0 94 20 117 505
600 249 248 504 506 567 575 126 136 238 268 238 278 0 7 -22 -15 -185 -195
-94 -103 -770 -781 -992 -995 -191 -182 -222 -301 -106 -396 21 -17 33 -31 28
-32 -20 0 -82 59 -99 94 -24 50 -20 91 16 165 36 74 55 93 548 574 437 427
809 828 810 873 0 19 -7 22 -52 27 -29 3 -141 -6 -248 -19 -370 -44 -394 -43
-445 17 -30 37 -32 80 -5 124 28 45 56 55 225 76 185 24 419 69 695 134 159
37 316 65 366 65 86 0 143 -47 144 -118 0 -72 -33 -115 -167 -216 -34 -26
-102 -84 -150 -129 -157 -146 -592 -579 -711 -707 -182 -196 -341 -366 -415
-443 -78 -82 -157 -187 -157 -210 0 -8 7 -17 15 -20 17 -7 30 9 15 18 -5 3
-10 10 -10 15 0 19 620 668 937 980 317 313 524 500 589 533 17 9 48 41 70 73
33 48 39 64 39 109 0 48 -4 58 -43 104 -45 53 -42 72 3 24z m175 -13 c6 -11 8
-20 6 -20 -3 0 -10 9 -16 20 -6 11 -8 20 -6 20 3 0 10 -9 16 -20z m1136 -36
c-4 -14 -9 -24 -12 -21 -3 2 -2 17 2 31 3 15 9 25 11 22 3 -3 2 -17 -1 -32z
m-3120 -50 c3 -18 4 -39 1 -46 -3 -7 -6 1 -7 17 0 17 -7 41 -15 55 -19 33 -19
50 0 26 8 -11 18 -34 21 -52z m-361 24 c-16 -12 -66 -58 -110 -102 -94 -95
-155 -204 -162 -289 -4 -46 -27 -113 -44 -127 -4 -3 -10 -16 -14 -29 -4 -13
-21 -47 -37 -75 -17 -28 -41 -75 -55 -104 -13 -29 -36 -74 -52 -100 -15 -26
-47 -83 -71 -127 -65 -119 -76 -140 -106 -187 -15 -24 -39 -63 -52 -88 -13
-25 -69 -112 -123 -194 -55 -81 -98 -150 -96 -152 9 -9 139 178 239 346 172
286 390 688 412 760 4 14 16 55 26 92 39 146 167 309 268 342 47 16 54 16 85
1 61 -29 73 -97 34 -187 -13 -29 -57 -109 -97 -178 -40 -69 -104 -179 -143
-245 -38 -66 -109 -185 -157 -265 -47 -80 -120 -201 -160 -270 -40 -69 -110
-187 -154 -262 -45 -76 -115 -197 -156 -269 -131 -230 -206 -310 -305 -324
-68 -11 -121 10 -180 69 -85 85 -111 151 -177 453 -12 57 -23 101 -26 99 -2
-2 3 -44 11 -93 8 -48 15 -99 15 -113 0 -14 5 -41 11 -60 60 -206 82 -251 163
-332 46 -46 53 -56 28 -42 -46 27 -105 97 -136 161 -40 86 -62 163 -89 321
-28 157 -52 252 -66 252 -18 0 -137 -116 -184 -180 -26 -35 -77 -99 -140 -174
-27 -32 -72 -87 -99 -120 -265 -327 -427 -452 -559 -431 -130 21 -223 116
-274 280 -15 51 -18 95 -18 290 1 246 5 284 75 631 52 255 69 355 80 462 5 56
16 115 24 131 23 43 91 99 131 107 84 15 143 -15 164 -85 16 -54 14 -95 -9
-202 -44 -209 -51 -236 -65 -294 -80 -329 -114 -526 -122 -705 -5 -130 -3
-151 15 -203 24 -67 53 -97 93 -97 77 0 428 415 675 797 166 257 197 314 250
456 47 124 84 183 139 217 45 28 56 25 15 -5 -41 -30 -95 -105 -111 -154 -6
-20 -15 -40 -19 -46 -4 -5 -11 -26 -15 -45 -10 -45 -38 -101 -123 -241 -71
-117 -239 -375 -261 -400 -6 -8 -47 -62 -90 -120 -107 -146 -209 -269 -305
-366 -90 -92 -96 -112 -9 -30 146 137 385 443 587 749 143 216 163 253 226
408 65 158 91 192 173 228 60 26 143 6 168 -39 15 -29 13 -121 -4 -199 -9 -36
-18 -90 -22 -120 -4 -30 -14 -84 -21 -120 -23 -107 -29 -371 -11 -465 8 -44
20 -92 26 -107 12 -33 79 -108 95 -108 12 1 118 142 187 250 131 203 258 424
399 695 109 209 120 234 120 275 0 107 148 324 275 401 41 26 57 23 20 -3z
m215 -31 c32 -52 20 -132 -36 -242 -26 -49 -53 -97 -60 -106 -8 -8 -14 -21
-14 -27 0 -7 -4 -12 -8 -12 -5 0 -21 -26 -37 -57 -15 -32 -38 -71 -49 -88 -12
-16 -29 -43 -36 -60 -8 -16 -17 -32 -20 -35 -10 -9 -70 -110 -70 -118 0 -4
-23 -41 -50 -82 -27 -41 -50 -78 -50 -82 0 -4 -16 -32 -35 -62 -19 -30 -35
-58 -35 -62 0 -4 -17 -32 -38 -63 -20 -31 -44 -69 -52 -86 -8 -16 -23 -43 -35
-60 -25 -37 -38 -60 -61 -105 -10 -19 -21 -37 -24 -40 -8 -6 -138 -228 -162
-275 -51 -102 -123 -222 -160 -270 -47 -59 -118 -115 -146 -115 -9 0 9 17 38
38 69 48 141 143 215 284 33 61 91 164 128 227 38 64 79 134 92 156 21 37 254
432 275 465 5 8 48 80 95 160 47 80 91 154 98 164 48 78 74 123 80 137 3 10
28 53 55 96 64 101 91 161 98 217 8 57 0 87 -33 127 -25 30 -26 31 -5 20 13
-7 32 -27 42 -44z m2147 21 c-3 -8 -6 -5 -6 6 -1 11 2 17 5 13 3 -3 4 -12 1
-19z m1099 -28 c-3 -17 -20 -58 -37 -93 -17 -34 -39 -89 -49 -122 -63 -200
-82 -267 -119 -420 -43 -182 -60 -298 -44 -308 24 -15 246 156 368 284 44 46
100 110 124 142 43 56 61 73 42 40 -41 -75 -228 -276 -326 -351 -33 -26 -69
-55 -80 -65 -48 -44 -125 -89 -141 -83 -15 6 -16 17 -11 84 3 42 15 113 26
157 29 118 88 336 105 386 7 24 24 78 35 119 12 41 26 82 31 90 16 25 47 93
61 133 16 45 24 48 15 7z m-1091 -40 c-4 -17 -9 -29 -12 -26 -3 2 -2 19 2 36
4 17 9 29 12 26 3 -2 2 -19 -2 -36z m-2010 -113 c-25 -101 -15 -85 -582 -1037
-214 -360 -268 -452 -365 -630 -53 -96 -113 -183 -164 -237 -50 -53 -155 -123
-183 -123 -9 1 -1 7 16 15 47 20 113 67 157 112 55 56 111 144 224 354 41 75
172 301 214 369 19 30 60 98 90 150 31 52 80 136 110 185 30 50 67 110 81 135
84 138 200 337 206 350 3 8 39 70 79 137 75 125 105 197 118 280 4 26 10 40
12 30 2 -10 -4 -51 -13 -90z m372 52 c-35 -26 -67 -92 -67 -137 0 -39 27 -101
47 -109 7 -3 13 -9 13 -14 0 -16 -37 13 -54 42 -21 35 -21 121 0 165 17 35 58
74 78 74 6 0 -1 -10 -17 -21z m1620 -11 c-3 -7 -5 -2 -5 12 0 14 2 19 5 13 2
-7 2 -19 0 -25z m-9832 -53 c17 -15 42 -31 57 -37 36 -13 39 -27 16 -68 -10
-19 -16 -26 -12 -15 16 50 16 54 -14 69 -32 17 -112 102 -112 120 0 6 8 -1 18
-16 10 -15 31 -39 47 -53z m9814 3 c-30 -58 -96 -132 -145 -164 -115 -74 -250
-199 -679 -629 -318 -318 -501 -512 -493 -521 3 -2 99 16 214 41 269 58 274
59 309 77 17 9 95 38 175 66 80 28 170 62 201 76 31 14 76 28 100 30 24 2 35
2 24 -1 -44 -9 -93 -27 -150 -54 -33 -15 -115 -46 -182 -69 -67 -23 -143 -52
-170 -66 -26 -13 -54 -24 -62 -24 -21 0 -354 -81 -377 -92 -11 -5 -42 -10 -69
-11 -79 -3 -72 18 44 134 56 55 101 105 101 110 0 5 3 9 8 9 4 0 160 152 347
338 187 185 378 371 424 412 46 41 89 80 95 85 34 32 106 85 141 104 40 23
104 95 126 144 7 15 16 27 21 27 5 0 3 -10 -3 -22z m-3526 -55 c-7 -2 -19 -2
-25 0 -7 3 -2 5 12 5 14 0 19 -2 13 -5z m-85 -18 c-49 -13 -138 -60 -138 -73
0 -4 -13 -16 -28 -26 -27 -19 -26 -19 3 13 49 53 140 101 190 100 11 -1 -1 -7
-27 -14z m219 9 c-3 -3 -12 -4 -19 -1 -8 3 -5 6 6 6 11 1 17 -2 13 -5z m-1204
-33 c10 -8 28 -35 39 -59 24 -54 20 -151 -12 -287 -26 -108 -39 -169 -47 -213
-3 -18 -9 -35 -14 -38 -5 -3 -9 -21 -9 -41 0 -36 -14 -91 -32 -126 -5 -10 -6
-22 -3 -27 6 -9 -10 -89 -25 -125 -9 -23 -35 -162 -50 -274 -6 -41 -9 -134 -7
-207 4 -114 7 -137 27 -171 l22 -38 -24 26 c-65 70 -62 344 7 634 8 33 21 94
31 135 9 41 25 108 35 149 11 41 19 83 19 94 0 10 9 51 19 90 80 301 80 417
-3 482 -20 17 -24 23 -11 19 11 -4 28 -14 38 -23z m1260 18 c34 -18 107 -79
107 -90 0 -6 -16 6 -36 25 -20 19 -55 44 -77 55 -23 12 -36 21 -29 21 7 0 23
-5 35 -11z m-1473 -2 c0 -2 -19 -17 -43 -34 -67 -49 -93 -108 -101 -229 -9
-136 -20 -198 -91 -529 -8 -38 -20 -106 -26 -150 -6 -44 -12 -82 -14 -86 -10
-16 -46 -335 -40 -358 4 -14 11 -78 15 -141 14 -183 61 -295 162 -384 40 -36
46 -44 22 -33 -44 22 -112 101 -140 161 -68 148 -89 366 -60 606 19 155 18
152 92 525 31 153 60 330 65 393 11 145 40 201 124 245 33 18 35 19 35 14z
m6331 -54 c-12 -20 -14 -14 -5 12 4 9 9 14 11 11 3 -2 0 -13 -6 -23z m-5944
-5 c-3 -8 -6 -5 -6 6 -1 11 2 17 5 13 3 -3 4 -12 1 -19z m10 -50 c-3 -8 -6 -5
-6 6 -1 11 2 17 5 13 3 -3 4 -12 1 -19z m1223 -68 c14 -48 13 -61 -10 -191
-56 -316 -91 -609 -72 -609 9 0 28 29 129 192 86 141 233 405 233 419 0 4 4
11 10 14 10 6 3 -21 -10 -40 -4 -5 -34 -62 -68 -126 -50 -97 -156 -283 -192
-339 -6 -8 -13 -22 -16 -30 -17 -40 -80 -130 -92 -130 -12 0 -33 39 -27 50 2
3 6 49 9 104 4 54 8 102 11 105 2 4 11 52 20 107 8 54 29 166 46 249 32 157
32 208 3 270 -14 27 -14 28 1 10 8 -10 20 -35 25 -55z m4668 50 c-7 -10 -14
-17 -17 -15 -4 4 18 35 25 35 2 0 -1 -9 -8 -20z m-4810 -71 c21 -43 22 -49 9
-90 -8 -24 -20 -80 -26 -124 -12 -82 -29 -169 -39 -195 -3 -8 -7 -40 -8 -70
-2 -30 -8 -89 -14 -130 -14 -88 -8 -343 8 -363 6 -7 7 -19 3 -26 -5 -8 -14 10
-26 52 -14 54 -17 92 -12 214 3 81 10 173 16 203 5 30 17 98 26 150 9 52 26
152 39 222 26 144 24 158 -37 212 l-32 29 35 -19 c22 -12 43 -36 58 -65z
m-1071 -6 c-2 -16 -4 -3 -4 27 0 30 2 43 4 28 2 -16 2 -40 0 -55z m1616 52
c-3 -9 -8 -14 -10 -11 -3 3 -2 9 2 15 9 16 15 13 8 -4z m1124 -108 c42 -19 64
-22 166 -21 74 1 123 6 130 13 6 6 27 11 47 11 20 0 39 3 43 6 3 4 24 7 47 8
33 2 40 0 34 -13 -3 -9 -8 -23 -11 -31 -2 -8 -190 -199 -418 -425 -540 -536
-686 -677 -644 -624 18 24 74 82 124 129 205 195 618 606 762 760 178 189 179
178 -7 157 -130 -15 -207 -8 -279 24 -48 21 -95 60 -114 94 -5 11 8 1 31 -23
23 -23 63 -53 89 -65z m3111 83 c-7 -10 -14 -17 -17 -15 -4 4 18 35 25 35 2 0
-1 -9 -8 -20z m633 -41 c-12 -19 -21 -40 -21 -47 0 -8 -6 -28 -14 -45 -7 -18
-21 -53 -31 -79 -9 -26 -21 -50 -26 -53 -15 -10 -10 11 16 71 14 31 25 61 25
66 0 6 7 26 16 46 41 95 48 107 51 91 2 -9 -5 -32 -16 -50z m-3271 41 c0 -5
-5 -10 -11 -10 -5 0 -7 5 -4 10 3 6 8 10 11 10 2 0 4 -4 4 -10z m-1620 -18 c0
-5 -7 -17 -15 -28 -14 -18 -14 -17 -4 9 12 27 19 34 19 19z m1590 -12 c0 -5
-4 -10 -10 -10 -5 0 -10 5 -10 10 0 6 5 10 10 10 6 0 10 -4 10 -10z m-3209
-152 c-12 -56 -32 -148 -45 -203 -13 -55 -34 -145 -46 -200 -12 -55 -30 -138
-40 -185 -17 -73 -31 -165 -56 -357 -4 -33 -2 -42 8 -37 14 6 108 115 168 193
19 25 40 52 48 60 7 7 50 65 94 128 44 63 82 112 85 110 4 -5 -102 -166 -117
-177 -3 -3 -33 -41 -65 -85 -52 -71 -170 -219 -202 -252 -17 -19 -41 -16 -45
5 -2 9 2 60 8 112 11 88 22 141 91 445 14 61 33 146 43 190 10 44 24 107 33
140 8 33 22 97 32 143 10 45 20 80 22 78 3 -2 -5 -51 -16 -108z m1567 62 c-7
-10 -14 -17 -17 -15 -4 4 18 35 25 35 2 0 -1 -9 -8 -20z m-3508 -20 c-8 -5
-19 -10 -25 -10 -5 0 -3 5 5 10 8 5 20 10 25 10 6 0 3 -5 -5 -10z m431 -23
c135 -63 187 -175 155 -338 -25 -130 -78 -220 -198 -335 -96 -93 -150 -129
-303 -204 -156 -76 -317 -133 -505 -180 -236 -58 -252 -63 -279 -86 -63 -53
-101 -202 -77 -304 22 -93 71 -148 167 -187 61 -25 275 -25 372 1 149 39 300
113 480 235 70 47 156 103 190 124 200 121 195 -78 -6 -241 -74 -60 -174 -132
-182 -132 -2 0 -26 -13 -53 -29 -221 -130 -581 -222 -817 -207 -247 15 -368
90 -430 268 -17 51 -20 185 -4 257 6 27 9 63 7 78 -4 27 -4 26 -16 -12 -29
-94 -36 -173 -25 -264 14 -108 43 -169 115 -241 46 -45 49 -50 21 -36 -69 34
-134 143 -151 251 -11 67 -1 226 18 294 6 24 9 54 6 67 -3 12 -2 24 3 26 6 2
5 19 -1 43 -21 78 -7 108 101 214 54 53 106 112 116 131 53 105 215 312 349
445 204 204 383 317 586 370 128 34 279 31 361 -8z m103 14 c69 -43 126 -164
126 -268 0 -49 -22 -153 -32 -153 -4 0 -8 -9 -8 -21 0 -41 -74 -164 -144 -237
-78 -82 -224 -192 -296 -222 -14 -5 -33 -15 -43 -21 -11 -6 -21 -8 -23 -6 -2
2 31 25 74 50 182 105 333 247 386 362 49 108 69 193 62 272 -8 97 -37 162
-97 218 -52 49 -54 56 -5 26z m-575 -5 c-2 -3 -40 -23 -84 -46 -272 -142 -572
-440 -755 -752 -35 -60 -69 -108 -77 -108 -23 0 -87 -46 -115 -82 -43 -57 -79
-198 -49 -198 5 0 11 -7 14 -14 4 -10 1 -13 -8 -10 -8 3 -19 21 -25 40 -25 76
49 214 140 262 24 12 54 47 97 112 241 372 506 634 767 761 70 34 108 48 95
35z m818 -158 c-3 -7 -5 -2 -5 12 0 14 2 19 5 13 2 -7 2 -19 0 -25z m7558 -31
c-10 -23 -26 -61 -36 -84 -11 -24 -19 -48 -19 -53 0 -6 -9 -32 -21 -58 -11
-26 -24 -56 -29 -67 -5 -11 -18 -49 -30 -85 -12 -36 -28 -75 -36 -87 -8 -12
-14 -28 -14 -35 0 -13 -19 -54 -99 -218 -88 -181 -192 -345 -294 -465 -72 -83
-282 -293 -351 -350 -27 -22 -54 -45 -60 -51 -28 -27 -125 -102 -166 -128 -25
-16 -79 -55 -120 -86 -82 -62 -150 -102 -283 -167 -138 -68 -126 -50 18 26
140 73 143 75 315 198 453 324 740 641 920 1018 34 72 66 139 70 150 12 29 48
113 71 163 10 23 19 47 19 52 0 5 5 21 12 37 6 15 19 48 28 73 21 54 84 213
100 255 8 18 14 25 17 17 3 -8 -3 -32 -12 -55z m147 -5 c-11 -26 -40 -96 -63
-157 -264 -687 -358 -860 -642 -1178 -221 -247 -653 -580 -935 -721 -100 -50
-262 -100 -248 -77 3 5 26 12 51 15 24 4 47 11 50 17 4 5 14 9 24 9 24 0 159
67 266 132 104 63 375 260 460 333 366 317 543 531 697 846 85 173 118 244
118 253 0 4 8 26 18 49 19 44 32 76 77 192 15 39 35 90 45 115 10 25 29 72 41
105 34 94 50 127 57 121 3 -3 -4 -27 -16 -54z m-7706 -194 c-9 -29 -13 -39
-11 -23 3 17 9 73 13 125 l7 95 3 -72 c2 -43 -3 -92 -12 -125z m1544 112 c-6
-11 -13 -20 -16 -20 -2 0 0 9 6 20 6 11 13 20 16 20 2 0 0 -9 -6 -20z m-32
-50 c-7 -10 -14 -17 -17 -15 -4 4 18 35 25 35 2 0 -1 -9 -8 -20z m-38 -60 c-6
-11 -13 -20 -16 -20 -2 0 0 9 6 20 6 11 13 20 16 20 2 0 0 -9 -6 -20z m5620
13 c0 -30 -429 -453 -460 -453 -5 0 -6 -8 -3 -17 6 -15 4 -16 -9 -5 -13 10
-24 7 -66 -22 -28 -19 -49 -36 -47 -38 2 -2 -12 -4 -32 -4 l-37 0 35 14 c111
45 347 242 511 426 86 96 108 117 108 99z m-5650 -62 c-5 -11 -15 -23 -22 -27
-7 -5 -8 -2 -3 7 21 37 44 55 25 20z m-1486 -98 c-29 -80 -119 -206 -202 -285
-203 -190 -506 -333 -927 -438 -93 -23 -174 -45 -178 -49 -4 -4 -11 -32 -16
-61 -8 -48 -6 -56 14 -76 45 -45 200 -44 341 2 141 46 257 111 499 279 115 80
209 125 275 130 l55 4 -45 -9 c-90 -19 -202 -81 -340 -185 -117 -89 -318 -198
-430 -234 -172 -54 -337 -54 -386 0 -13 15 -15 30 -10 83 4 35 13 71 19 79 7
8 62 24 122 37 61 12 121 26 135 30 14 4 52 15 85 25 33 9 75 23 93 31 18 8
38 14 45 14 12 0 87 28 162 60 22 10 50 20 62 24 38 12 204 106 283 159 77 54
207 175 252 237 36 50 73 119 87 163 7 21 15 36 18 33 3 -3 -3 -26 -13 -53z
m1450 42 c-4 -8 -11 -15 -16 -15 -6 0 -5 6 2 15 7 8 14 15 16 15 2 0 1 -7 -2
-15z m-4139 -115 c-3 -5 -13 -10 -21 -10 -8 0 -14 -4 -14 -10 0 -5 -6 -10 -12
-10 -7 0 -48 -18 -91 -39 -42 -20 -79 -35 -82 -32 -5 4 201 109 218 110 5 1 5
-3 2 -9z m8227 -39 c44 -28 87 -86 103 -140 12 -40 -11 -15 -25 28 -16 49 -62
98 -115 122 -22 10 -33 19 -24 19 8 0 36 -13 61 -29z m-1132 -11 c0 -5 -2 -10
-4 -10 -3 0 -8 5 -11 10 -3 6 -1 10 4 10 6 0 11 -4 11 -10z m-40 -30 c0 -5 -4
-10 -10 -10 -5 0 -10 5 -10 10 0 6 5 10 10 10 6 0 10 -4 10 -10z m70 6 c0 -3
-4 -8 -10 -11 -5 -3 -10 -1 -10 4 0 6 5 11 10 11 6 0 10 -2 10 -4z m-6203 -57
c-14 -22 -47 -56 -74 -74 -28 -18 -62 -48 -76 -65 -15 -17 -27 -28 -27 -23 0
14 65 80 108 108 23 15 50 42 61 61 11 19 23 34 26 34 3 0 -5 -18 -18 -41z
m6103 21 c0 -5 -5 -10 -11 -10 -5 0 -7 5 -4 10 3 6 8 10 11 10 2 0 4 -4 4 -10z
m1574 -52 c15 -27 25 -48 22 -48 -7 0 -56 84 -56 95 0 11 1 9 34 -47z m-8884
36 c0 -7 -66 -34 -82 -33 -7 0 7 9 32 19 53 22 50 21 50 14z m4728 -90 c-35
-43 -95 -119 -133 -170 -66 -86 -118 -147 -199 -239 -20 -22 -34 -46 -31 -53
3 -7 1 -11 -4 -8 -13 8 -34 -21 -25 -35 4 -7 3 -9 -3 -6 -6 4 -37 -24 -69 -61
-105 -119 -213 -211 -292 -249 -18 -9 -35 -13 -39 -10 -3 4 5 11 19 16 28 10
146 97 197 145 37 34 245 282 445 531 71 88 143 175 159 192 55 59 40 26 -25
-53z m2612 70 c0 -8 -4 -12 -10 -9 -5 3 -10 10 -10 16 0 5 5 9 10 9 6 0 10 -7
10 -16z m1112 -21 c17 -20 32 -59 48 -121 10 -39 8 -47 -16 -95 -33 -61 -78
-113 -116 -133 -39 -20 -34 -4 7 26 36 26 97 108 109 147 10 33 -22 139 -52
168 -17 17 -20 25 -10 25 8 0 22 -8 30 -17z m-8566 -8 c-11 -8 -27 -15 -35
-15 -9 1 -2 7 14 15 39 18 44 18 21 0z m8399 6 c-19 -17 -110 -61 -125 -60 -8
0 17 16 55 34 75 36 84 40 70 26z m-975 -11 c0 -5 -2 -10 -4 -10 -3 0 -8 5
-11 10 -3 6 -1 10 4 10 6 0 11 -4 11 -10z m1324 -71 c11 -55 5 -66 -10 -19
-16 54 -16 50 -5 50 5 0 11 -14 15 -31z m480 -149 c27 -11 46 -23 43 -26 -20
-20 -175 102 -229 179 -12 18 14 -5 58 -50 53 -55 95 -89 128 -103z m-9439
150 c-3 -5 -14 -10 -23 -9 -14 0 -13 2 3 9 27 11 27 11 20 0z m9945 -20 c0 -5
-4 -10 -10 -10 -5 0 -10 5 -10 10 0 6 5 10 10 10 6 0 10 -4 10 -10z m60 0 c0
-5 -5 -10 -11 -10 -5 0 -7 5 -4 10 3 6 8 10 11 10 2 0 4 -4 4 -10z m-4444 -32
c3 -13 13 -31 22 -41 16 -18 14 -31 -4 -19 -13 10 -44 59 -44 72 0 19 19 10
26 -12z m2733 7 c-19 -7 -54 -22 -78 -34 -24 -13 -45 -20 -49 -17 -3 3 19 16
49 29 73 32 82 35 99 36 8 0 -1 -6 -21 -14z m1621 -11 c0 -8 -4 -12 -10 -9 -5
3 -10 10 -10 16 0 5 5 9 10 9 6 0 10 -7 10 -16z m60 2 c0 -3 -4 -8 -10 -11 -5
-3 -10 -1 -10 4 0 6 5 11 10 11 6 0 10 -2 10 -4z m-7320 -30 c-8 -8 -28 -17
-45 -21 l-30 -6 35 20 c41 24 60 27 40 7z m7230 1 c0 -8 -7 -14 -15 -14 -16 0
-19 9 -8 20 11 11 23 8 23 -6z m60 -7 c0 -5 -4 -10 -10 -10 -5 0 -10 5 -10 10
0 6 5 10 10 10 6 0 10 -4 10 -10z m-995 -66 c-21 -51 -29 -38 -8 16 9 23 19
38 21 32 1 -5 -4 -27 -13 -48z m1049 40 c11 -29 19 -18 -92 -143 -144 -163
-372 -362 -502 -439 -105 -61 -200 -103 -336 -148 -58 -19 -115 -39 -127 -44
-21 -10 -21 -10 0 6 13 9 79 35 147 59 157 54 334 146 445 233 110 86 306 276
383 371 60 75 68 95 26 67 -48 -31 -144 -57 -233 -62 -74 -4 -102 -2 -155 15
-36 12 -49 19 -30 15 19 -3 56 -9 81 -13 58 -10 187 4 225 24 16 8 38 15 49
15 11 0 38 14 59 30 45 34 52 36 60 14z m-7424 1 c0 -6 -69 -35 -84 -35 -6 0
5 9 24 19 34 19 60 26 60 16z m-143 -61 c-3 -3 -12 -4 -19 -1 -8 3 -5 6 6 6
11 1 17 -2 13 -5z m770 0 c-3 -3 -12 -4 -19 -1 -8 3 -5 6 6 6 11 1 17 -2 13
-5z m73 -26 c37 -26 69 -68 51 -68 -6 0 -11 6 -11 13 0 16 -34 45 -74 63 -17
7 -24 13 -15 14 9 0 31 -10 49 -22z m1789 -2 c5 -13 14 -48 20 -77 6 -30 13
-65 16 -79 6 -21 4 -21 -9 5 -8 17 -20 56 -26 88 -6 31 -15 57 -19 57 -4 0
-43 -44 -87 -97 -279 -342 -358 -430 -450 -503 -72 -57 -182 -126 -189 -118
-2 2 30 24 72 48 97 57 256 213 388 380 55 69 108 134 118 145 10 11 44 55 75
98 30 42 62 77 69 77 7 0 18 -11 22 -24z m-2612 -18 c-3 -8 -6 -5 -6 6 -1 11
2 17 5 13 3 -3 4 -12 1 -19z m6440 -41 c-39 -56 -90 -102 -144 -130 -51 -27
-53 -19 -3 9 56 32 125 98 152 146 12 21 24 36 26 33 3 -3 -11 -29 -31 -58z
m-9669 20 c-14 -13 -32 -43 -40 -68 -8 -24 -21 -60 -28 -79 -6 -19 -18 -60
-25 -90 -7 -30 -18 -68 -24 -83 -6 -16 -11 -39 -11 -53 0 -13 -4 -32 -9 -42
-15 -26 -38 -110 -52 -182 -12 -69 -36 -113 -26 -50 10 59 34 161 57 235 12
39 27 95 35 125 22 94 45 173 54 184 5 6 11 28 15 48 4 23 17 45 33 58 35 28
52 25 21 -3z m2653 -99 c-24 -44 -32 -77 -45 -201 -7 -60 12 -108 62 -159 20
-21 32 -38 26 -38 -12 0 -78 68 -92 95 -20 41 -23 103 -8 177 21 101 45 158
67 158 5 0 0 -15 -10 -32z m1349 -54 c0 -23 -4 -46 -10 -49 -5 -3 -10 -15 -10
-27 0 -30 -52 -116 -101 -167 -50 -52 -215 -175 -284 -213 -99 -54 -170 -88
-182 -88 -7 0 31 23 84 50 201 105 392 263 447 370 30 57 41 152 23 195 -7 17
-5 16 12 -4 14 -16 21 -37 21 -67z m-237 -11 c-275 -187 -346 -231 -433 -269
-114 -50 -172 -67 -80 -24 129 60 157 77 353 208 183 123 228 150 250 151 4 1
-36 -29 -90 -66z m362 -56 c-36 -151 -115 -264 -264 -375 -260 -195 -467 -290
-773 -352 -177 -37 -376 -49 -483 -31 -150 25 -291 84 -360 149 -62 58 -68 74
-8 21 122 -108 302 -169 504 -169 111 0 380 39 422 61 10 5 22 7 27 4 5 -3 17
-1 27 4 10 5 55 21 101 35 166 52 295 119 482 250 203 144 272 232 315 406 9
35 13 78 10 95 l-5 30 11 -28 c9 -23 7 -45 -6 -100z m-2035 43 c6 -11 8 -20 6
-20 -3 0 -10 9 -16 20 -6 11 -8 20 -6 20 3 0 10 -9 16 -20z m7379 6 c-2 -2
-38 -9 -79 -15 -41 -6 -145 -30 -230 -54 -594 -169 -1007 -268 -1284 -307
-120 -18 -273 8 -382 63 -45 23 -144 115 -144 134 0 4 20 -15 45 -43 110 -126
327 -175 565 -129 321 62 421 84 442 95 9 5 35 13 58 16 22 4 43 11 46 15 3 5
10 7 15 4 5 -3 26 -1 46 5 21 6 79 22 128 35 87 22 157 41 335 90 47 13 105
29 130 35 25 7 52 15 60 18 58 23 266 55 249 38z m-3491 -156 c47 -67 137
-142 193 -160 23 -8 37 -16 32 -17 -22 -8 -103 38 -160 91 -54 50 -144 177
-143 202 1 5 10 -7 20 -26 11 -19 37 -60 58 -90z m2422 0 c0 -5 -5 -10 -11
-10 -5 0 -7 5 -4 10 3 6 8 10 11 10 2 0 4 -4 4 -10z m70 0 c0 -5 -4 -10 -10
-10 -5 0 -10 5 -10 10 0 6 5 10 10 10 6 0 10 -4 10 -10z m-40 -30 c0 -5 -4
-10 -10 -10 -5 0 -10 5 -10 10 0 6 5 10 10 10 6 0 10 -4 10 -10z m-3880 -125
c14 -19 14 -19 -2 -6 -10 7 -18 18 -18 24 0 6 1 8 3 6 1 -2 9 -13 17 -24z
m131 -130 c33 -24 79 -50 101 -56 22 -5 38 -13 35 -16 -22 -22 -185 79 -231
144 l-28 38 31 -32 c17 -18 58 -53 92 -78z m1584 95 c13 -5 14 -9 5 -9 -8 0
-24 4 -35 9 -13 5 -14 9 -5 9 8 0 24 -4 35 -9z m138 3 c-7 -2 -21 -2 -30 0
-10 3 -4 5 12 5 17 0 24 -2 18 -5z m-65 -10 c-10 -2 -26 -2 -35 0 -10 3 -2 5
17 5 19 0 27 -2 18 -5z m3352 -136 c0 -2 -19 -21 -42 -42 -23 -22 -34 -29 -23
-15 27 32 65 66 65 57z m-7532 -52 c-3 -3 -9 2 -12 12 -6 14 -5 15 5 6 7 -7
10 -15 7 -18z m2732 15 c20 -6 21 -8 5 -8 -11 0 -31 4 -45 8 -20 6 -21 8 -5 8
11 0 31 -4 45 -8z m183 3 c-7 -2 -19 -2 -25 0 -7 3 -2 5 12 5 14 0 19 -2 13
-5z m-5311 -81 c-11 -31 -23 -76 -27 -99 -3 -22 -13 -49 -20 -60 -8 -10 -15
-27 -15 -38 -2 -41 -89 -180 -154 -246 -58 -59 -116 -92 -116 -68 0 5 7 9 16
9 8 0 48 33 87 73 76 76 130 165 162 267 10 30 21 60 25 65 4 6 11 32 14 58 9
56 37 128 44 109 2 -7 -5 -39 -16 -70z m128 -48 c-17 -60 -37 -129 -44 -154
-52 -179 -194 -367 -327 -430 -35 -16 -73 -30 -84 -29 -11 0 -1 6 22 14 100
31 202 120 286 251 53 83 105 220 138 364 7 30 16 59 21 65 4 5 8 18 9 30 0
11 3 15 5 9 3 -6 -9 -60 -26 -120z m5073 119 c-7 -2 -19 -2 -25 0 -7 3 -2 5
12 5 14 0 19 -2 13 -5z m60 0 c-7 -2 -21 -2 -30 0 -10 3 -4 5 12 5 17 0 24 -2
18 -5z m-1648 -13 c-3 -5 -14 -10 -23 -10 -15 0 -15 2 -2 10 20 13 33 13 25 0z
m-90 -29 c-6 -5 -21 -11 -35 -15 -21 -5 -20 -3 5 9 35 17 42 18 30 6z m6508
-40 c-91 -66 -112 -213 -41 -288 12 -13 17 -23 11 -23 -29 0 -73 88 -73 148 0
53 47 141 89 169 50 33 61 28 14 -6z m-10570 -11 c-3 -11 -9 -20 -15 -20 -5 0
-4 9 2 20 6 11 12 20 14 20 2 0 2 -9 -1 -20z m10413 -382 l29 -33 -32 29 c-31
28 -38 36 -30 36 2 0 16 -15 33 -32z m74 -54 c0 -2 -9 0 -20 6 -11 6 -20 13
-20 16 0 2 9 0 20 -6 11 -6 20 -13 20 -16z m37 -10 c-3 -3 -12 -4 -19 -1 -8 3
-5 6 6 6 11 1 17 -2 13 -5z m138 -5 c-22 -4 -60 -7 -85 -7 l-45 1 50 7 c28 4
66 7 85 7 l35 1 -40 -9z m-10631 -153 c21 -14 34 -26 29 -26 -18 0 -92 59
-103 82 -10 20 -9 19 12 -4 12 -15 41 -38 62 -52z m139 -43 c-7 -2 -19 -2 -25
0 -7 3 -2 5 12 5 14 0 19 -2 13 -5z"/>
<path d="M7475 4336 c-113 -28 -216 -94 -354 -229 -124 -120 -252 -313 -237
-354 9 -23 34 -15 29 10 -15 75 241 371 404 469 84 51 138 75 93 42 -47 -34
-69 -57 -64 -66 3 -4 0 -8 -5 -8 -6 0 -11 4 -11 10 0 5 -7 7 -15 4 -10 -4 -14
-14 -10 -28 5 -15 4 -17 -3 -7 -5 7 -15 12 -20 10 -24 -8 -120 -97 -177 -162
-33 -38 -68 -78 -77 -88 -10 -10 -18 -23 -18 -28 0 -5 -7 -14 -15 -21 -8 -7
-29 -37 -46 -67 -25 -43 -29 -57 -19 -68 19 -23 96 -18 212 15 218 61 384 145
480 241 31 32 82 109 75 115 -2 2 -17 -17 -33 -42 -43 -68 -136 -141 -249
-195 -138 -66 -173 -72 -48 -8 198 101 307 208 319 314 6 47 4 53 -25 84 -17
18 -31 37 -31 42 0 9 -65 29 -90 28 -8 0 -37 -6 -65 -13z m-65 -126 c0 -5 -4
-10 -10 -10 -5 0 -10 5 -10 10 0 6 5 10 10 10 6 0 10 -4 10 -10z m-23 -45 c6
-14 7 -25 2 -25 -5 0 -9 5 -9 10 0 6 -7 10 -15 10 -8 0 -15 7 -15 15 0 24 24
17 37 -10z m40 3 c-3 -8 -6 -5 -6 6 -1 11 2 17 5 13 3 -3 4 -12 1 -19z m58
-63 c-31 -28 -147 -95 -166 -95 -5 0 -13 8 -18 18 -8 14 -3 26 24 55 19 20 40
37 47 37 7 0 36 13 63 29 50 27 50 27 66 8 16 -19 15 -22 -16 -52z m-205 45
c0 -5 -5 -10 -11 -10 -5 0 -7 5 -4 10 3 6 8 10 11 10 2 0 4 -4 4 -10z m60 -6
c0 -8 -4 -12 -10 -9 -5 3 -10 10 -10 16 0 5 5 9 10 9 6 0 10 -7 10 -16z"/>
<path d="M7401 4099 c-24 -17 -40 -33 -37 -36 7 -7 86 46 86 58 0 13 -3 12
-49 -22z"/>
<path d="M6440 5917 c0 -3 7 -21 15 -40 8 -20 19 -67 25 -104 9 -67 10 -69 80
-138 101 -98 114 -127 107 -236 -7 -87 -7 -87 27 -130 40 -53 56 -98 56 -154
0 -35 -8 -54 -44 -101 -54 -73 -103 -120 -138 -133 -18 -7 -30 -21 -36 -43 -5
-18 -5 -34 -1 -36 4 -2 47 11 96 29 48 18 117 42 153 54 l65 22 21 79 c32 118
65 227 74 245 13 23 -48 188 -80 219 -3 3 -28 39 -55 80 -28 41 -58 84 -68 95
-10 11 -25 32 -34 46 -29 49 -263 267 -263 246z"/>
<path d="M6161 5796 c-17 -24 -43 -53 -57 -63 l-27 -20 69 -37 c78 -43 133
-85 218 -165 49 -47 58 -52 52 -31 -3 14 -8 43 -12 65 -12 92 -16 105 -30 120
-9 8 -25 15 -37 15 -37 0 -49 16 -58 71 -9 56 -34 89 -70 89 -10 0 -31 -19
-48 -44z"/>
<path d="M8965 5404 c-38 -6 -97 -20 -130 -29 -48 -14 -56 -19 -40 -26 42 -16
172 -10 226 11 29 12 75 26 103 32 49 11 50 11 22 19 -38 11 -94 9 -181 -7z"/>
<path d="M12710 5400 c-126 -17 -173 -44 -186 -108 -6 -28 -4 -32 14 -32 28 0
271 51 462 97 l155 38 -105 6 c-139 9 -272 8 -340 -1z"/>
<path d="M5180 5356 c-145 -20 -321 -54 -369 -71 -109 -38 -139 -85 -284 -450
-144 -364 -217 -553 -217 -564 0 -4 -18 -56 -40 -115 -56 -149 -65 -254 -24
-270 12 -4 15 -2 10 9 -4 12 -2 13 12 7 9 -5 23 -7 31 -4 8 3 11 0 7 -7 -12
-19 35 -13 166 23 532 146 1092 399 1383 624 173 133 247 222 273 325 42 167
-49 340 -225 427 -127 62 -184 73 -418 76 -133 2 -245 -2 -305 -10z m771 -114
c45 -29 139 -128 139 -147 0 -5 8 -23 17 -40 13 -22 17 -51 15 -112 -2 -113
-24 -158 -126 -258 -102 -100 -198 -172 -351 -263 -103 -60 -383 -202 -400
-202 -3 0 -44 -18 -92 -40 -47 -22 -91 -39 -96 -37 -5 1 35 22 89 46 141 62
383 184 492 247 199 118 397 291 441 386 33 72 32 178 -2 248 -30 62 -91 129
-156 171 -25 16 -38 29 -30 29 8 0 35 -13 60 -28z m-1189 -29 c-24 -21 -72
-107 -72 -129 0 -8 -11 -36 -24 -62 -23 -44 -49 -102 -66 -147 -22 -59 -54
-135 -71 -170 -10 -22 -19 -47 -19 -55 0 -8 -9 -32 -20 -53 -11 -20 -20 -45
-20 -54 0 -10 -9 -31 -20 -48 -11 -16 -20 -39 -20 -50 0 -11 -7 -31 -16 -43
-9 -13 -14 -32 -11 -43 3 -10 1 -19 -4 -19 -5 0 -9 -6 -9 -14 0 -7 -6 -19 -14
-25 -8 -7 -17 -28 -21 -49 -4 -20 -10 -41 -14 -47 -5 -5 -28 -72 -52 -147 -24
-76 -47 -138 -51 -138 -13 0 -9 25 8 66 9 22 20 53 25 69 4 17 12 44 18 60 41
115 124 335 171 455 10 25 32 81 49 125 17 44 40 100 50 125 10 25 27 65 36
90 10 25 33 77 50 115 18 39 42 92 54 120 25 57 48 85 69 85 10 0 9 -5 -6 -17z
m853 -23 c193 -18 310 -88 340 -201 17 -62 12 -91 -23 -139 -53 -74 -223 -210
-372 -298 -97 -57 -369 -190 -510 -250 -193 -81 -559 -212 -594 -212 -24 0
-20 43 8 103 14 29 28 66 32 82 4 17 10 35 14 40 4 6 13 28 20 50 7 22 16 44
21 49 5 6 9 16 9 23 0 7 9 32 20 56 10 23 42 101 70 172 64 160 96 239 121
288 10 22 19 43 19 48 0 26 46 102 69 113 22 12 46 17 141 32 8 2 58 10 110
19 52 9 138 19 190 22 52 2 96 6 98 8 7 7 121 4 217 -5z m-585 -1060 c-20 -13
-33 -13 -25 0 3 6 14 10 23 10 15 0 15 -2 2 -10z m-50 -20 c-8 -5 -22 -9 -30
-9 -10 0 -8 3 5 9 27 12 43 12 25 0z m-85 -29 c-13 -11 -77 -32 -82 -27 -2 2
15 11 39 19 53 19 54 19 43 8z"/>
<path d="M5260 5174 c-14 -2 -59 -9 -100 -15 -89 -12 -265 -47 -294 -59 -21
-8 -94 -164 -187 -400 -22 -58 -47 -118 -54 -135 -69 -164 -162 -432 -152
-441 16 -17 376 108 632 218 440 190 755 398 836 551 55 105 -68 236 -257 272
-69 14 -352 19 -424 9z"/>
<path d="M7195 4693 c-58 -17 -85 -38 -85 -65 0 -18 3 -17 43 6 23 13 65 36
92 50 40 20 45 25 25 25 -14 0 -47 -7 -75 -16z"/>
<path d="M6812 4560 c-40 -17 -45 -78 -12 -164 l10 -29 54 49 c65 59 72 74 52
112 -22 42 -54 52 -104 32z"/>
<path d="M15331 4084 c0 -11 3 -14 6 -6 3 7 2 16 -1 19 -3 4 -6 -2 -5 -13z"/>
<path d="M15306 4024 c-4 -14 -5 -28 -3 -31 3 -2 8 8 11 23 4 14 5 28 3 31 -3
2 -8 -8 -11 -23z"/>
<path d="M15256 3905 c-9 -26 -7 -32 5 -12 6 10 9 21 6 23 -2 3 -7 -2 -11 -11z"/>
<path d="M15225 3843 c-5 -10 -9 -20 -9 -23 -1 -3 -8 -16 -15 -28 -7 -13 -11
-26 -9 -28 3 -2 15 17 27 42 13 25 21 47 18 50 -2 3 -8 -3 -12 -13z"/>
</g>
</svg>
